<svg width="150" height="84" viewBox="0 0 150 84" fill="none" xmlns="http://www.w3.org/2000/svg">
<path d="M99.7686 3.65723C104.933 -1.33021 113.163 -1.1871 118.15 3.97754L146.356 33.1855C151.344 38.3501 151.2 46.58 146.035 51.5674L116.827 79.7734C111.663 84.7608 103.433 84.6175 98.4453 79.4531L75.5049 55.6982L79.2539 52.2031C84.5044 47.3067 84.7916 39.0809 79.8955 33.8301L74.5068 28.0508L99.7686 3.65723ZM33.8301 3.49219C39.081 -1.40408 47.3066 -1.11694 52.2031 4.13379L74.5068 28.0508L70.5605 31.8623C65.3959 36.8497 65.2518 45.0805 70.2393 50.2451L75.5049 55.6982L49.5576 79.8955C44.3067 84.7919 36.0801 84.5048 31.1836 79.2539L3.49219 49.5576C-1.40427 44.3068 -1.11689 36.0811 4.13379 31.1846L33.8301 3.49219Z" fill="#373737"/>
</svg>
