<svg width="35" height="35" viewBox="0 0 35 35" fill="none" xmlns="http://www.w3.org/2000/svg">
<g clip-path="url(#clip0_1_46)">
<path d="M32.0833 17.5C32.0833 25.5542 25.5541 32.0833 17.5 32.0833M32.0833 17.5C32.0833 9.44585 25.5541 2.91667 17.5 2.91667M32.0833 17.5H2.91666M17.5 32.0833C9.44584 32.0833 2.91666 25.5542 2.91666 17.5M17.5 32.0833C21.1477 28.0899 23.2207 22.9074 23.3333 17.5C23.2207 12.0925 21.1477 6.9101 17.5 2.91667M17.5 32.0833C13.8523 28.0899 11.7793 22.9074 11.6667 17.5C11.7793 12.0925 13.8523 6.9101 17.5 2.91667M2.91666 17.5C2.91666 9.44585 9.44584 2.91667 17.5 2.91667" stroke="#D9D9D9" stroke-width="4" stroke-linecap="round" stroke-linejoin="round"/>
</g>
<defs>
<clipPath id="clip0_1_46">
<rect width="35" height="35" fill="white"/>
</clipPath>
</defs>
</svg>
